# xmcd
#
# Track frame offsets: 
#        150
#        26402
#        52301
#        101799
#        131908
#        153686
#        183699
#        215934
#        243267
#        272268
#
# Disc length: 4432 seconds
#
# Revision: 0
# Processed by: cddbd v1.5.2PL0 Copyright (c) Steve Scherf et al.
# Submitted via: ExactAudioCopy v1.1
#
DISCID=9b114e0a
DTITLE=Lester Butler and The Red Devils - The Borderline 1993-04-05
DYEAR=1993
DGENRE=
TTITLE0=Automatic
TTITLE1=Your Turn To Cry
TTITLE2=Cross My Heart
TTITLE3=She's Dangerous
TTITLE4=Scuttle Buttin
TTITLE5=Commit A Crime
TTITLE6=Backstreet Crawl
TTITLE7=Blackwater Roll
TTITLE8=Who Do You Love ?
TTITLE9=I Wish You Would - Backstroke
EXTD=
EXTT0=
EXTT1=
EXTT2=
EXTT3=
EXTT4=
EXTT5=
EXTT6=
EXTT7=
EXTT8=
EXTT9=
PLAYORDER=
